<?xml version="1.0" encoding="UTF-8"?>
<svg id="Layer_2" data-name="Layer 2" xmlns="http://www.w3.org/2000/svg" xmlns:xlink="http://www.w3.org/1999/xlink" viewBox="0 0 285.23 79.11">
  <defs>
    <style>
      .cls-1 {
        fill: none;
      }

      .cls-2 {
        fill: #202f40;
      }

      .cls-3 {
        fill: #ffbf40;
      }

      .cls-4 {
        fill: #eb3539;
      }

      .cls-5 {
        fill: #f57a3c;
      }

      .cls-6 {
        fill: #f0f0f0;
      }

      .cls-7 {
        clip-path: url(#clippath);
      }
    </style>
    <clipPath id="clippath">
      <path class="cls-1" d="M174.82,54.9v-30.7c0-2.01-1.07-3.87-2.81-4.87l-26.59-15.35c-1.74-1.01-3.89-1.01-5.63,0l-26.59,15.35c-1.74,1.01-2.81,2.86-2.81,4.87v30.7c0,2.01,1.07,3.87,2.81,4.87l26.59,15.35c1.74,1.01,3.89,1.01,5.63,0l26.59-15.35c1.74-1.01,2.81-2.86,2.81-4.87h0Z"/>
    </clipPath>
  </defs>
  <g id="Layer_1-2" data-name="Layer 1">
    <g>
      <path class="cls-6" d="M280.3,12.6c-3.15-3.16-7.42-4.93-11.88-4.93h-.01s-251.61.01-251.61.01c-4.63,0-8.85,1.89-11.88,4.93C1.77,15.76,0,20.03,0,24.48v28.95C0,58.06,1.89,62.28,4.93,65.31c3.03,3.04,7.25,4.93,11.88,4.93h251.61c4.63,0,8.85-1.89,11.88-4.93,3.04-3.03,4.93-7.25,4.93-11.88v-28.95c0-4.63-1.89-8.85-4.93-11.88ZM281.99,53.43c0,7.49-6.09,13.58-13.58,13.58H16.8c-7.49,0-13.58-6.09-13.58-13.58v-28.95c0-7.49,6.09-13.58,13.58-13.58h251.61c7.49,0,13.58,6.09,13.58,13.58v28.95Z"/>
      <path class="cls-6" d="M173.62,16.54l-26.59-15.35c-1.37-.79-2.9-1.19-4.42-1.19s-3.06.4-4.43,1.19l-26.59,15.35c-2.74,1.58-4.43,4.51-4.43,7.67v30.7c0,3.16,1.69,6.08,4.43,7.66l26.59,15.35c1.37.79,2.9,1.19,4.43,1.19s3.06-.4,4.43-1.19l26.59-15.35c2.74-1.58,4.43-4.5,4.43-7.66v-30.7c0-3.16-1.69-6.09-4.43-7.67h0Z"/>
      <g class="cls-7">
        <g>
          <path class="cls-2" d="M147.03,36.24h-8.85l-27.79,21.91,32.22,18.6,32.21-18.6-27.79-21.91"/>
          <path class="cls-4" d="M151.46,26.47v9.77c0,7.19,5.85,13.05,13.05,13.05h10.31v4.43h-10.31c-9.64,0-17.48-7.84-17.48-17.48v-10.31l4.43.54"/>
          <path class="cls-3" d="M155.89,28.01v8.23c0,4.75,3.86,8.62,8.62,8.62h10.31v4.43h-10.31c-7.19,0-13.05-5.85-13.05-13.05v-9.77l4.43,1.54"/>
          <path class="cls-3" d="M160.32,29.67v6.58c0,2.31,1.88,4.19,4.19,4.19h10.31v4.43h-10.31c-4.75,0-8.62-3.87-8.62-8.62v-8.23l4.43,1.65"/>
          <path class="cls-2" d="M164.51,53.72c-9.64,0-17.48-7.84-17.48-17.48v-10.31l-4.43-1.66-4.43,1.66v10.31c0,9.64-7.84,17.48-17.48,17.48h-10.31v4.43h10.31c12.08,0,21.91-9.83,21.91-21.91,0,12.08,9.83,21.91,21.91,21.91h10.31v-4.43h-10.31Z"/>
          <path class="cls-4" d="M133.75,26.47v9.77c0,7.19-5.85,13.05-13.05,13.05h-10.31v4.43h10.31c9.64,0,17.48-7.84,17.48-17.48v-10.31l-4.43.54"/>
          <path class="cls-3" d="M129.32,28.01v8.23c0,4.75-3.87,8.62-8.62,8.62h-10.31v4.43h10.31c7.19,0,13.05-5.85,13.05-13.05v-9.77l-4.43,1.54"/>
          <path class="cls-5" d="M151.46,26.47v9.77c0,7.19,5.85,13.05,13.05,13.05h10.31v-4.43h-10.31c-4.75,0-8.62-3.87-8.62-8.62v-8.23l-4.43-1.54M133.75,26.47l-4.43,1.54v8.23c0,4.75-3.87,8.62-8.62,8.62h-10.31v4.43h10.31c7.19,0,13.05-5.85,13.05-13.05v-9.77"/>
          <path class="cls-3" d="M124.89,29.67v6.58c0,2.31-1.88,4.19-4.19,4.19h-10.31v4.43h10.31c4.75,0,8.62-3.87,8.62-8.62v-8.23s-4.43,1.65-4.43,1.65Z"/>
        </g>
      </g>
      <path class="cls-2" d="M145.83,21.31v-8.93c0-3.41-1.36-6.29-3.22-6.29s-3.22,2.88-3.22,6.29v8.93l-14.5,8.36v3.73l14.5-3.22,1.23,2.76h3.98l1.23-2.76,14.5,3.22v-3.73l-14.5-8.36h0Z"/>
      <path class="cls-6" d="M84.72,58.15v-31.21h7.09v-7.2h-22.73v7.2h7.15v31.21h8.49ZM65.12,50.95h-12.27v-8.8h9.55v-7.2h-9.55v-8h12.27v-7.2h-20.75v38.41h20.75v-7.2h0ZM30.31,19.74v28.01c0,2.56-1.01,3.68-3.04,3.68-1.87,0-2.99-.8-2.99-3.68v-4.53h-7.95v7.15c0,5.28,4.27,8.32,10.94,8.32s11.52-3.09,11.52-11.52v-27.42h-8.48ZM269.2,58.15v-20.86h-11.36v7.2h3.41v4.32c0,1.81-1.28,2.61-3.41,2.61-2.35,0-3.47-.8-3.47-2.61v-19.74c0-1.81,1.12-2.61,3.47-2.61,2.13,0,3.41.8,3.41,2.61v4.53h7.95v-6.08c0-5.28-4.43-8.32-11.36-8.32-7.31,0-11.95,3.04-11.95,8.32v22.83c0,5.28,4,8.32,10.35,8.32,3.15,0,5.71-.8,7.41-2.35l1.17,1.81h4.37v.02ZM229.44,29.45l2.83,13.71h-5.65l2.83-13.71h-.01ZM223.52,58.15l1.49-7.25h8.85l1.49,7.25h8.48l-9.28-38.41h-10.19l-9.33,38.41h8.49ZM213.17,50.95h-12.38v-31.21h-8.48v38.41h20.86v-7.2Z"/>
    </g>
  </g>
</svg>